<svg xmlns="http://www.w3.org/2000/svg" version="1.1" xmlns:xlink="http://www.w3.org/1999/xlink" width="512" height="512" x="0" y="0" viewBox="0 0 512 512" style="enable-background:new 0 0 512 512" xml:space="preserve" class=""><g><path d="M485.93 146.825c-.096-.666-.546-2.903-2.315-3.726l-204.392-95.19c-5.714-2.662-14.178-4.093-19.674-1.5l-208.152 98.16c-.126.059-.614.808-.601 2.271.016 1.772.833 3.925 2.361 4.611l25.869 11.631c-1.2 27.787.614 77.18.531 104.869-13.141 2.748-23.043 14.422-23.043 28.367 0 12.381 7.807 22.969 18.755 27.112.017.896.028 1.795.057 2.683-.049.326-.077.66-.083.999-.734 44.329-18.163 81.627-45.485 97.34-4.677 2.691-5.067 9.31-.727 12.527l38.455 28.504a7.501 7.501 0 0 0 9.552-.513c31.143-28.729 25.349-60.191 19.215-93.501-2.708-14.701-5.495-29.841-5.96-46.576 13.703-2.294 24.182-14.232 24.182-28.576 0-12.817-8.366-23.71-19.922-27.523.112-26.044-1.486-71.068-.749-99.068l163.855 76.969c6.634 3.092 14.905 3.723 19.646 1.49l208.158-98.162c.208-.192.72-1.442.467-3.198z" fill="#000000" opacity="1" data-original="#000000"></path><path d="m251.303 260.282-115.478-54.265v82.562c0 33.734 61.752 62.234 134.847 62.234 73.098 0 134.853-28.5 134.853-62.234v-84.273l-121.824 57.448c-9.667 4.555-22.644 3.075-32.398-1.472z" fill="#000000" opacity="1" data-original="#000000"></path></g></svg>