<svg xmlns="http://www.w3.org/2000/svg" version="1.1" xmlns:xlink="http://www.w3.org/1999/xlink" width="512" height="512" x="0" y="0" viewBox="0 0 512.017 512.017" style="enable-background:new 0 0 512 512" xml:space="preserve" class=""><g><circle cx="93.884" cy="179.213" r="17.067" fill="#000000" opacity="1" data-original="#000000" class=""></circle><path d="M118.639 247.479h-49.51c-5.171 0-9.378 3.891-9.378 8.67v36.011c10.598 4.156 22.084 6.519 34.133 6.519s23.535-2.364 34.133-6.519v-36.011c0-4.778-4.207-8.67-9.378-8.67z" fill="#000000" opacity="1" data-original="#000000" class=""></path><circle cx="298.684" cy="68.279" r="17.067" fill="#000000" opacity="1" data-original="#000000" class=""></circle><path d="M323.439 136.546h-49.51c-5.171 0-9.378 3.891-9.378 8.67v36.011c10.598 4.156 22.084 6.519 34.133 6.519s23.535-2.364 34.133-6.519v-36.011c0-4.779-4.207-8.67-9.378-8.67z" fill="#000000" opacity="1" data-original="#000000" class=""></path><circle cx="409.617" cy="290.146" r="17.067" fill="#000000" opacity="1" data-original="#000000" class=""></circle><path d="M434.372 358.413h-49.51c-5.171 0-9.378 3.891-9.378 8.67v36.011c10.598 4.156 22.084 6.519 34.133 6.519s23.535-2.364 34.133-6.519v-36.011c0-4.77-4.207-8.67-9.378-8.67z" fill="#000000" opacity="1" data-original="#000000" class=""></path><path d="M409.617 221.879c-1.143 0-2.253.128-3.379.171l-36.19-67.396c12.988-15.206 21.137-34.586 22.246-55.834l53.683 25.916c-1.374 3.695-2.227 7.646-2.227 11.81 0 18.825 15.309 34.133 34.133 34.133 18.825 0 34.133-15.309 34.133-34.133 0-18.825-15.309-34.133-34.133-34.133-8.388 0-15.974 3.157-21.922 8.192l-64.666-31.224c-7.885-50.492-56.021-87.825-110.49-77.713-37.257 6.912-67.226 36.787-74.266 74.018a98.183 98.183 0 0 0-1.613 14.165l-50.577 43.273c-14.302-12.083-32.239-19.968-51.934-21.751V67.059c14.677-3.814 25.6-17.058 25.6-32.922 0-18.825-15.309-34.133-34.133-34.133-18.825 0-34.133 15.309-34.133 34.133 0 15.863 10.923 29.107 25.6 32.922v44.314C37.579 115.708.016 155.926.016 204.805c0 32.87 17.016 61.798 42.667 78.575v-27.238c0-14.191 11.87-25.737 26.445-25.737h49.51c14.583 0 26.445 11.546 26.445 25.737v27.238a93.966 93.966 0 0 0 41.079-62.336l38.511 30.02a33.95 33.95 0 0 0-2.799 13.474c0 18.825 15.309 34.133 34.133 34.133s34.133-15.309 34.133-34.133c0-18.825-15.309-34.133-34.133-34.133-7.851 0-15.002 2.773-20.779 7.245l-47.71-37.188c-.956-20.881-8.661-40.03-21.129-55.185l40.021-34.253c4.77 25.634 19.985 47.633 41.062 61.414V145.2c0-14.191 11.87-25.737 26.445-25.737h49.51c14.583 0 26.445 11.546 26.445 25.737v8.943c0 3.575 2.065 6.332 4.787 7.757l33.57 62.524c-41.472 9.719-72.482 46.925-72.482 91.315 0 10.607 1.937 20.727 5.197 30.234l-34.551 25.916c-16.162-28.39-46.643-47.616-81.587-47.616-48.879 0-89.105 37.564-93.431 85.333h-44.32c-3.814-14.677-17.067-25.6-32.922-25.6C15.309 384.004 0 399.313 0 418.138c0 18.825 15.309 34.133 34.133 34.133 15.855 0 29.107-10.923 32.922-25.6h44.433c2.671 29.286 18.722 54.741 42.121 70.042v-27.238c0-14.191 11.87-25.737 26.445-25.737h49.51c14.583 0 26.445 11.546 26.445 25.737v27.238a94.072 94.072 0 0 0 40.166-57.651l55.927 27.008c-1.374 3.695-2.227 7.646-2.227 11.81 0 18.825 15.309 34.133 34.133 34.133 18.825 0 34.133-15.309 34.133-34.133s-15.309-34.133-34.133-34.133c-8.388 0-15.974 3.157-21.922 8.192l-63.607-30.711c.034-1.041.196-2.039.196-3.081 0-10.615-1.852-20.779-5.111-30.302l34.483-25.865c7.432 13.022 17.843 24.141 30.37 32.333v-27.238c0-14.191 11.87-25.737 26.445-25.737h49.51c14.583 0 26.445 11.546 26.445 25.737v27.238c25.651-16.777 42.667-45.705 42.667-78.575 0-51.747-42.112-93.859-93.867-93.859zm-315.733-8.533c-18.825 0-34.133-15.309-34.133-34.133S75.06 145.08 93.884 145.08s34.133 15.309 34.133 34.133-15.317 34.133-34.133 34.133zm204.8-110.933c-18.825 0-34.133-15.309-34.133-34.133s15.309-34.133 34.133-34.133 34.133 15.309 34.133 34.133-15.317 34.133-34.133 34.133zm-93.867 324.266c-18.825 0-34.133-15.309-34.133-34.133 0-18.825 15.309-34.133 34.133-34.133s34.133 15.309 34.133 34.133c0 18.825-15.317 34.133-34.133 34.133zm204.8-102.4c-18.825 0-34.133-15.309-34.133-34.133 0-18.825 15.309-34.133 34.133-34.133s34.133 15.309 34.133 34.133c0 18.833-15.317 34.133-34.133 34.133z" fill="#000000" opacity="1" data-original="#000000" class=""></path><circle cx="204.817" cy="392.546" r="17.067" fill="#000000" opacity="1" data-original="#000000" class=""></circle><path d="M229.572 460.813h-49.51c-5.171 0-9.378 3.891-9.378 8.67v36.011c10.598 4.156 22.084 6.519 34.133 6.519 12.049 0 23.535-2.364 34.133-6.519v-36.011c0-4.77-4.207-8.67-9.378-8.67z" fill="#000000" opacity="1" data-original="#000000" class=""></path></g></svg>