<svg xmlns="http://www.w3.org/2000/svg" version="1.1" xmlns:xlink="http://www.w3.org/1999/xlink" width="512" height="512" x="0" y="0" viewBox="0 0 512 512" style="enable-background:new 0 0 512 512" xml:space="preserve" class=""><g><path d="M160.46 45.51C160.46 20.375 180.834 0 205.967 0s45.508 20.375 45.508 45.51c0 25.134-20.375 45.51-45.508 45.51S160.46 70.644 160.46 45.51zm201.988 81.463c-7.086 6.528-15.839 14.11-24.744 14.11-8.739 0-16.86-7.855-24.327-13.765-.223-.176-.49-.316-.73-.479 2.256 6.637 3.629 13.68 3.629 21.068v91.018a65.91 65.91 0 0 1-.435 7.512 151.5 151.5 0 0 1 15.361-6.576c.548-.202 1.098-.392 1.647-.588a151.723 151.723 0 0 1 14.011-4.193c1.062-.267 2.113-.552 3.182-.795 4.329-.973 8.71-1.727 13.139-2.324 1.323-.182 2.626-.437 3.957-.584 5.383-.584 10.817-.934 16.307-.954.194-.001.382-.034.577-.034 4.545 0 9.045.262 13.511.691 3.32.291 6.574.784 9.83 1.284.716.111 1.447.163 2.162.282.003-.185.045-.359.045-.545v-72.817c0-20.025-16.383-36.408-36.406-36.408-.002.001-6.585.29-10.716 4.097zm-24.745-13.198c20.106 0 36.406-16.301 36.406-36.408 0-20.108-16.3-36.408-36.406-36.408-20.107 0-36.406 16.3-36.406 36.408 0 20.107 16.299 36.408 36.406 36.408zm-62.299 161.607c3.931-3.931 8.067-7.573 12.331-11.019 5.02-7.257 8.065-15.965 8.065-25.435v-91.02c0-25.031-20.479-45.51-45.508-45.51 0 0-8.227.361-13.393 5.12-8.858 8.16-19.798 17.637-30.93 17.637-10.924 0-21.076-9.819-30.409-17.207-5.705-4.515-16.283-5.551-16.283-5.551-25.029 0-45.508 20.479-45.508 45.51v91.02c0 20.36 13.636 37.504 32.162 43.27l13.346 104.639c0 12.515 10.24 22.755 22.754 22.755h45.507c1.756 0 3.448-.252 5.091-.635-1.34-8.145-2.215-16.446-2.215-24.964-.001-41.023 15.979-79.598 44.99-108.61zM73.758 113.775c20.107 0 36.407-16.301 36.407-36.408 0-20.108-16.3-36.408-36.407-36.408-20.106 0-36.406 16.3-36.406 36.408.001 20.107 16.3 36.408 36.406 36.408zm19.535 125.15v-91.018c0-6.481.958-12.739 2.707-18.66-6.595 5.894-14.354 11.836-22.24 11.836-8.739 0-16.86-7.855-24.328-13.765-4.563-3.612-13.026-4.441-13.026-4.441C16.382 122.877 0 139.261 0 159.285v72.817c0 16.288 10.909 30.003 25.73 34.616l10.676 83.711c0 10.012 8.192 18.204 18.203 18.204h36.407c10.011 0 18.202-8.192 18.202-18.204l7.723-61.25c-14.657-12.212-23.648-30.31-23.648-50.254zM512 383.998c0 34.188-13.319 66.334-37.492 90.508C450.336 498.68 418.192 512 384.006 512c-70.581 0-127.994-57.416-127.994-128.002 0-34.188 13.315-66.339 37.487-90.512 24.172-24.174 56.321-37.489 90.507-37.489 70.581 0 127.994 57.416 127.994 128.001zm-38.448.056c.009-6.833-2.651-13.258-7.486-18.093-4.835-4.852-11.269-7.522-18.11-7.522h-38.393v-38.395c0-6.841-2.669-13.276-7.521-18.111-4.834-4.835-11.259-7.495-18.056-7.487-6.832-.009-13.258 2.652-18.11 7.505-4.835 4.834-7.504 11.269-7.504 18.093v38.395H319.98c-6.824 0-13.258 2.669-18.092 7.505-4.852 4.852-7.512 11.278-7.503 18.075-.009 6.833 2.651 13.258 7.486 18.093 4.834 4.853 11.269 7.522 18.11 7.522h38.392v38.395c0 6.841 2.669 13.276 7.521 18.111 4.835 4.835 11.26 7.495 18.056 7.487 6.832.009 13.258-2.651 18.11-7.505 4.835-4.834 7.503-11.269 7.503-18.093v-38.395h38.393c6.823 0 13.258-2.669 18.092-7.504 4.853-4.854 7.513-11.279 7.504-18.076z" fill="#000000" opacity="1" data-original="#000000" class=""></path></g></svg>