<svg xmlns="http://www.w3.org/2000/svg" version="1.1" xmlns:xlink="http://www.w3.org/1999/xlink" width="512" height="512" x="0" y="0" viewBox="0 0 24 24" style="enable-background:new 0 0 512 512" xml:space="preserve" class=""><g><path d="M21.265 5.435C20.192 6.024 18.096 7 16 7c-3 0-6-2-9-2-2.222 0-3.895 1.097-4.614 1.666-.243.192-.386.48-.386.79v10.505a.5.5 0 0 0 .791.406C3.641 17.781 5.125 17 7 17c3 0 6 2 9 2 2.263 0 4.526-1.138 5.5-1.697a.993.993 0 0 0 .5-.866V5.876a.497.497 0 0 0-.735-.44zM4 8.243c0-.172.083-.334.23-.423a5.835 5.835 0 0 1 1.758-.705A3.979 3.979 0 0 1 4 10.445zm.63 7.078a.49.49 0 0 1-.63-.465v-1.434a5.004 5.004 0 0 1 2.026 1.637 9.262 9.262 0 0 0-1.395.262zm8.245-.12h-.125v.299a.75.75 0 0 1-1.5 0v-.3h-1a.75.75 0 0 1 0-1.5h2.625a.475.475 0 0 0 0-.95h-1.75c-1.089 0-1.975-.886-1.975-1.975S10.036 8.8 11.125 8.8h.125v-.3a.75.75 0 0 1 1.5 0v.3h1a.75.75 0 0 1 0 1.5h-2.625a.475.475 0 0 0 0 .95h1.75c1.089 0 1.975.886 1.975 1.975s-.886 1.975-1.975 1.975zm7.125.33c0 .19-.1.364-.272.447-.474.23-1.06.48-1.693.676a3.974 3.974 0 0 1 1.965-3.1zm0-4.88a6.003 6.003 0 0 1-2.573-1.772c.676-.1 1.329-.257 1.935-.447.318-.1.638.147.638.48v1.74z" fill="#000000" opacity="1" data-original="#000000" class=""></path></g></svg>